<svg width="23" height="23" viewBox="0 0 23 23" fill="none" xmlns="http://www.w3.org/2000/svg">
<path d="M19.5853 5.6936C19.4732 5.58058 19.3399 5.49087 19.1929 5.42965C19.046 5.36843 18.8884 5.33691 18.7292 5.33691C18.57 5.33691 18.4124 5.36843 18.2654 5.42965C18.1185 5.49087 17.9851 5.58058 17.873 5.6936L8.88943 14.6893L5.11511 10.9029C4.99872 10.7904 4.86133 10.702 4.71077 10.6427C4.56021 10.5834 4.39944 10.5543 4.23764 10.5571C4.07584 10.5599 3.91617 10.5945 3.76776 10.659C3.61935 10.7235 3.48509 10.8166 3.37266 10.933C3.26023 11.0494 3.17182 11.1868 3.11249 11.3374C3.05316 11.4879 3.02406 11.6487 3.02686 11.8105C3.02966 11.9723 3.0643 12.132 3.1288 12.2804C3.19331 12.4288 3.28641 12.5631 3.4028 12.6755L8.03327 17.306C8.14537 17.419 8.27874 17.5087 8.42569 17.5699C8.57263 17.6311 8.73024 17.6626 8.88943 17.6626C9.04862 17.6626 9.20623 17.6311 9.35317 17.5699C9.50012 17.5087 9.63348 17.419 9.74558 17.306L19.5853 7.4662C19.7077 7.35329 19.8054 7.21624 19.8722 7.0637C19.939 6.91116 19.9735 6.74643 19.9735 6.5799C19.9735 6.41337 19.939 6.24865 19.8722 6.09611C19.8054 5.94357 19.7077 5.80652 19.5853 5.6936V5.6936Z" fill="white"/>
</svg>
